<svg
    id="home"
    viewBox="0 0 48 48"
    fill="currentColor"
    xmlns="http://www.w3.org/2000/svg"
>
    <path fill-rule="evenodd" clip-rule="evenodd"
        d="M13.9655 26.9655C13.9655 27.4828 14.4828 28 15 28C15.5172 28 16.0345 27.4828 16.0345 26.9655V25.069C16.0345 24.5517 15.5172 24.0345 15 24.0345C14.4828 24.0345 13.9655 24.5517 13.9655 25.069V26.9655ZM12.931 24.0345C13.4483 24.0345 13.9655 23.5172 13.9655 23C13.9655 22.4828 13.4483 21.9655 12.931 21.9655H11.0345C10.5172 21.9655 10 22.4828 10 23C10 23.5172 10.5172 24.0345 11.0345 24.0345H12.931ZM13.9655 20.931C13.9655 21.4483 14.4828 21.9655 15 21.9655C15.5172 21.9655 16.0345 21.4483 16.0345 20.931V19.0345C16.0345 18.5172 15.5172 18 15 18C14.4828 18 13.9655 18.5172 13.9655 19.0345V20.931ZM18.9655 24.0345C19.4828 24.0345 20 23.5172 20 23C20 22.4828 19.4828 21.9655 18.9655 21.9655H17.069C16.5517 21.9655 16.0345 22.4828 16.0345 23C16.0345 23.5172 16.5517 24.0345 17.069 24.0345H18.9655Z"
    />
    <path
        d="M37.364 26.512C37.364 25.4619 38.2059 24.6273 39.2247 24.6273C40.2435 24.6273 41.0586 25.4619 41.0586 26.512V45.0988C41.0586 46.1489 40.2435 47 39.2247 47H8.79942C7.77523 47 6.93873 46.1489 6.93873 45.0988V26.512C6.93873 25.4619 7.7806 24.6273 8.79942 24.6273C9.79679 24.6273 10.6333 25.4619 10.6333 26.512V43.1975H37.364V26.512ZM3.14227 27.026L23.9906 5.59282L44.8658 27.026C45.5736 27.7555 46.7533 27.7555 47.4611 27.026C48.1796 26.2964 48.1796 25.086 47.4611 24.3565L25.3365 1.57479L25.299 1.54716C24.5805 0.817614 23.4115 0.817614 22.693 1.54716L0.546948 24.351C-0.182316 25.0805 -0.182316 26.2909 0.546948 27.0204C1.25476 27.75 2.43445 27.75 3.14227 27.026Z"
    />
</svg>