<svg xmlns="http://www.w3.org/2000/svg" style="display: none;">
    <symbol id="home" viewBox="0 0 48 48">
        <svg
            xmlns="http://www.w3.org/2000/svg"
            class="svg-icon"
            fill="currentColor"
            viewBox="0 0 1024 1024"
        >
            <path
                d="M762.3 565.3c0-19 15.7-34.1 34.7-34.1 19 0 34.2 15.1 34.2 34.1v336.3c0 19-15.2 34.4-34.2 34.4H229.6c-19.1 0-34.7-15.4-34.7-34.4V565.3c0-19 15.7-34.1 34.7-34.1 18.6 0 34.2 15.1 34.2 34.1v301.9h498.5V565.3z m-638.2 9.3l388.8-387.8 389.3 387.8c13.2 13.2 35.2 13.2 48.4 0 13.4-13.2 13.4-35.1 0-48.3L538 114.1l-0.7-0.5c-13.4-13.2-35.2-13.2-48.6 0l-413 412.6c-13.6 13.2-13.6 35.1 0 48.3 13.2 13.2 35.2 13.2 48.4 0.1z" />
        </svg>
    </symbol>
    <symbol id="undo" viewBox="0 0 48 48">
        <svg
            xmlns="http://www.w3.org/2000/svg"
            class="svg-icon"
            fill="currentColor"
        >
            <path
                d="M7.01601 13.452C10.546 7.78 16.838 4 24.006 4C35.042 4 44 12.96 44 23.994C44 35.032 35.042 43.992 24.006 43.992C13.516 43.992 4.90001 35.896 4.07401 25.616C4.02601 25.012 4.45201 23.994 5.57201 23.994C6.35401 23.994 7.00201 24.594 7.06601 25.374C7.76801 34.112 15.09 40.992 24.006 40.992C33.386 40.992 41 33.376 41 23.994C41 14.616 33.386 7 24.006 7C17.932 7 12.598 10.194 9.59401 14.99L13.576 15C14.404 15 15.076 15.672 15.076 16.5C15.076 17.328 14.404 18 13.576 18H5.51001C4.68201 18 4.01001 17.328 4.01001 16.5V8.402C4.01001 7.574 4.68201 6.902 5.51001 6.902C6.33801 6.902 7.01001 7.572 7.01001 8.402L7.01601 13.452Z" />
        </svg>
    </symbol>
    <symbol id="theme" viewBox="0 0 48 48">
        <svg
            xmlns="http://www.w3.org/2000/svg"
            class="svg-icon"
            fill="currentColor"
            viewBox="0 0 1024 1024"
        >
            <path
                d="M320 85.333333c-76.373333 49.066667-128 135.68-128 234.666667s51.626667 185.6 129.28 234.666667C190.293333 554.666667 85.333333 449.706667 85.333333 320A234.666667 234.666667 0 0 1 320 85.333333m493.653333 64l61.013334 61.013334L210.346667 874.666667 149.333333 813.653333 813.653333 149.333333m-263.68 103.68L486.826667 213.333333 425.386667 256l17.92-72.533333L384 138.24l74.666667-5.12 24.746666-70.4L512 132.266667l73.813333 1.28-57.6 48.213333 21.76 71.253333m-140.8 154.026667l-49.493333-31.146667-47.786667 33.28 14.506667-56.32-46.506667-35.413333 58.026667-3.84 19.2-55.04 21.76 54.186667 58.026667 1.28-44.8 37.12 17.066666 55.893333M810.666667 576a234.666667 234.666667 0 0 1-234.666667 234.666667c-52.053333 0-100.266667-17.066667-139.093333-45.653334l328.106666-328.106666c28.586667 38.826667 45.653333 87.04 45.653334 139.093333m-187.733334 280.746667l118.186667-49.066667-10.24 142.933333-107.946667-93.866666m184.746667-115.2l49.066667-118.186667 93.866666 108.373333-142.933333 9.813334m49.066667-211.626667l-48.64-118.613333 142.506666 10.24-93.866666 108.373333M410.88 807.68l118.186667 49.066667-107.946667 93.44-10.24-142.506667z"
            />
        </svg>
    </symbol>
</svg>