<svg xmlns="http://www.w3.org/2000/svg" style="display: none;">
    <symbol id="home" viewBox="0 0 48 48">
        <svg
            xmlns="http://www.w3.org/2000/svg"
            class="svg-icon"
            fill="currentColor"
            viewBox="0 0 1024 1024"
        >
            <path
                d="M762.3 565.3c0-19 15.7-34.1 34.7-34.1 19 0 34.2 15.1 34.2 34.1v336.3c0 19-15.2 34.4-34.2 34.4H229.6c-19.1 0-34.7-15.4-34.7-34.4V565.3c0-19 15.7-34.1 34.7-34.1 18.6 0 34.2 15.1 34.2 34.1v301.9h498.5V565.3z m-638.2 9.3l388.8-387.8 389.3 387.8c13.2 13.2 35.2 13.2 48.4 0 13.4-13.2 13.4-35.1 0-48.3L538 114.1l-0.7-0.5c-13.4-13.2-35.2-13.2-48.6 0l-413 412.6c-13.6 13.2-13.6 35.1 0 48.3 13.2 13.2 35.2 13.2 48.4 0.1z" />
        </svg>
    </symbol>
    <symbol id="undo" viewBox="0 0 48 48">
        <svg
            xmlns="http://www.w3.org/2000/svg"
            class="svg-icon"
            fill="currentColor"
        >
            <path
                d="M7.01601 13.452C10.546 7.78 16.838 4 24.006 4C35.042 4 44 12.96 44 23.994C44 35.032 35.042 43.992 24.006 43.992C13.516 43.992 4.90001 35.896 4.07401 25.616C4.02601 25.012 4.45201 23.994 5.57201 23.994C6.35401 23.994 7.00201 24.594 7.06601 25.374C7.76801 34.112 15.09 40.992 24.006 40.992C33.386 40.992 41 33.376 41 23.994C41 14.616 33.386 7 24.006 7C17.932 7 12.598 10.194 9.59401 14.99L13.576 15C14.404 15 15.076 15.672 15.076 16.5C15.076 17.328 14.404 18 13.576 18H5.51001C4.68201 18 4.01001 17.328 4.01001 16.5V8.402C4.01001 7.574 4.68201 6.902 5.51001 6.902C6.33801 6.902 7.01001 7.572 7.01001 8.402L7.01601 13.452Z" />
        </svg>
    </symbol>
    <symbol id="theme" viewBox="0 0 48 48">
        <svg xmlns="http://www.w3.org/2000/svg" class="svg-icon" fill="currentColor" viewBox="0 0 1024 1024">
            <path
                d="M320 85.333C243.627 134.4 192 221.013 192 320s51.627 185.6 129.28 234.667c-130.987 0-235.947-104.96-235.947-234.667A234.667 234.667 0 0 1 320 85.333m493.653 64 61.014 61.014-664.32 664.32-61.014-61.014 664.32-664.32m-263.68 103.68-63.146-39.68L425.387 256l17.92-72.533L384 138.24l74.667-5.12 24.746-70.4L512 132.267l73.813 1.28-57.6 48.213 21.76 71.253m-140.8 154.027-49.493-31.147-47.787 33.28 14.507-56.32-46.507-35.413 58.027-3.84 19.2-55.04 21.76 54.187 58.027 1.28-44.8 37.12 17.066 55.893M810.667 576A234.667 234.667 0 0 1 576 810.667c-52.053 0-100.267-17.067-139.093-45.654l328.106-328.106c28.587 38.826 45.654 87.04 45.654 139.093M622.933 856.747 741.12 807.68l-10.24 142.933-107.947-93.866m184.747-115.2 49.067-118.187 93.866 108.373-142.933 9.814m49.067-211.627-48.64-118.613 142.506 10.24-93.866 108.373M410.88 807.68l118.187 49.067-107.947 93.44-10.24-142.507z" />
        </svg>
    </symbol>
</svg>