<svg
    id="themeTest"
    viewBox="0 0 48 48"
    fill="currentColor"
    xmlns="http://www.w3.org/2000/svg"
>
    <path fill-rule="evenodd" clip-rule="evenodd"
        d="M42.3188 29.1739C39.3043 31.9565 35.4783 33.2319 30.9565 33.2319C25.7391 33.2319 21.1014 30.913 17.8551 27.3188H22.6087C23.1884 27.3188 23.6522 26.8551 23.6522 26.2754C23.6522 25.6957 23.1884 25.2319 22.6087 25.2319H16.2319H15.8841H13.7971C13.2174 25.2319 12.7536 24.7681 12.7536 24.1884C12.7536 23.6087 13.2174 23.1449 13.7971 23.1449H15.1884H18.5507C19.1304 23.1449 19.5942 22.6812 19.5942 22.1014C19.5942 21.5217 19.1304 21.058 18.5507 21.058H14.3768C13.913 19.4348 13.5652 17.6957 13.5652 15.8406C13.5652 11.2029 14.8406 7.49275 17.6232 4.47826L20.7536 1L16.2319 2.27536C6.49275 5.05797 0 13.7536 0 23.9565C0 29.4058 1.97101 34.5072 5.21739 38.4493H2.66667C2.08696 38.4493 1.62319 38.913 1.62319 39.4927C1.62319 40.0725 2.08696 40.5362 2.66667 40.5362H7.18841H9.3913H11.4783C12.058 40.5362 12.5217 41 12.5217 41.5797C12.5217 42.1594 12.058 42.6232 11.4783 42.6232H9.73913H6.84058C6.26087 42.6232 5.7971 43.087 5.7971 43.6667C5.7971 44.2464 6.26087 44.7101 6.84058 44.7101H13.4493C16.3478 46.1014 19.5942 46.7971 22.9565 46.7971C28.9855 46.7971 34.4348 44.5942 38.4928 40.8841H42.8985C43.4783 40.8841 43.942 40.4203 43.942 39.8406C43.942 39.2609 43.4783 38.7971 42.8985 38.7971H40.4638H38.2609C37.6812 38.7971 37.2174 38.3333 37.2174 37.7536C37.2174 37.1739 37.6812 36.7101 38.2609 36.7101H40.2319H41.8551H46.9565C47.5362 36.7101 48 36.2464 48 35.6667C48 35.087 47.5362 34.6232 46.9565 34.6232H43.0145C43.5942 33.4638 44.058 32.1884 44.5217 30.7971L45.7971 26.2754L42.3188 29.1739Z"
    />
</svg>