<svg
    id="undo"
    viewBox="0 0 48 48"
    xmlns="http://www.w3.org/2000/svg"
    class="svg-icon"
    fill="currentColor"
>
    <path
        d="M7.01601 13.452C10.546 7.78 16.838 4 24.006 4C35.042 4 44 12.96 44 23.994C44 35.032 35.042 43.992 24.006 43.992C13.516 43.992 4.90001 35.896 4.07401 25.616C4.02601 25.012 4.45201 23.994 5.57201 23.994C6.35401 23.994 7.00201 24.594 7.06601 25.374C7.76801 34.112 15.09 40.992 24.006 40.992C33.386 40.992 41 33.376 41 23.994C41 14.616 33.386 7 24.006 7C17.932 7 12.598 10.194 9.59401 14.99L13.576 15C14.404 15 15.076 15.672 15.076 16.5C15.076 17.328 14.404 18 13.576 18H5.51001C4.68201 18 4.01001 17.328 4.01001 16.5V8.402C4.01001 7.574 4.68201 6.902 5.51001 6.902C6.33801 6.902 7.01001 7.572 7.01001 8.402L7.01601 13.452Z" />
</svg>